<?xml version="1.0" encoding="utf-8"?>
<svg xmlns="http://www.w3.org/2000/svg"
	xmlns:xlink="http://www.w3.org/1999/xlink"
	version="1.1" viewBox="0 0 32 32" xml:space="preserve">
	<path
		fill="#ffffff"
		d="M16.00,0.09C24.74,0.09,31.83,7.21,31.83,16.00C31.83,24.79,24.74,31.91,16.00,31.91C7.26,31.91,0.17,24.79,0.17,16.00C0.17,7.21,7.26,0.09,16.00,0.09z"/>
	<path
		fill="#2aff00"
		stroke="#000000"
		stroke-width="0.4"
		d="M28.01,17.90Q28.34,8.34,21.44,7.90L22.39,4.94Q22.07,3.79,21.16,4.63L20.22,7.60Q15.73,7.05,12.23,7.66L11.23,4.71Q10.30,3.90,10.00,5.06L11.03,7.98Q4.17,9.02,4.03,19.05C3.90,22.07,3.78,25.09,5.15,26.57C6.52,28.05,9.39,27.99,10.82,26.90C12.25,25.80,12.24,23.67,13.38,22.64C14.53,21.62,16.83,21.70,17.88,22.64C18.93,23.59,18.73,25.41,20.25,26.59C21.77,27.77,25.00,28.32,26.58,26.77C28.16,25.21,28.08,21.56,28.01,17.90zM18.66,9.23C19.22,9.23,19.66,9.72,19.66,10.33C19.66,10.93,19.22,11.42,18.66,11.42C18.11,11.42,17.66,10.93,17.66,10.33C17.66,9.72,18.11,9.23,18.66,9.23zM14.00,9.23C14.56,9.23,15.01,9.72,15.01,10.33C15.01,10.93,14.56,11.42,14.00,11.42C13.45,11.42,13.00,10.93,13.00,10.33C13.00,9.72,13.45,9.23,14.00,9.23z"/>
	<path
		fill="#767676"
		stroke="#000000"
		stroke-width="0.4"
		d="M8.44,14.05L8.72,11.97L10.92,11.97L11.33,14.05L9.89,15.23L8.44,14.05z M8.44,17.52L8.72,19.60L10.92,19.60L11.33,17.52L9.89,16.35L8.44,17.52z M11.50,14.33L13.54,14.61L13.55,16.85L11.51,17.28L10.35,15.82L11.50,14.33z M8.21,14.33L6.17,14.62L6.17,16.86L8.22,17.28L9.37,15.80L8.21,14.33z"/>
	<path
		fill="#00c4ff"
		d="M20.43,17.29C21.15,16.50,22.37,16.45,23.15,17.17C23.94,17.89,24.00,19.11,23.29,19.90C22.57,20.68,21.35,20.73,20.56,20.01C19.77,19.29,19.71,18.07,20.43,17.29z"/>
	<path
		fill="#ff8900"
		d="M20.29,11.24C21.00,10.46,22.22,10.41,23.01,11.13C23.80,11.85,23.86,13.07,23.14,13.85C22.43,14.64,21.21,14.69,20.42,13.97C19.63,13.24,19.57,12.03,20.29,11.24z"/>
	<path
		fill="#4500ff"
		d="M23.38,14.07C24.09,13.28,25.31,13.23,26.10,13.95C26.89,14.67,26.95,15.89,26.23,16.68C25.51,17.46,24.29,17.51,23.51,16.79C22.72,16.07,22.66,14.85,23.38,14.07z"/>
	<path
		fill="#ff0032"
		d="M17.34,14.46C18.06,13.68,19.28,13.63,20.07,14.35C20.86,15.07,20.91,16.29,20.20,17.07C19.48,17.86,18.26,17.91,17.47,17.19C16.69,16.46,16.63,15.25,17.34,14.46z"/>
</svg>